<svg id="Layer_1" data-name="Layer 1" xmlns="http://www.w3.org/2000/svg" xmlns:xlink="http://www.w3.org/1999/xlink" viewBox="0 0 135 130"><defs><style>.cls-1{fill:url(#New_Gradient_Swatch_15);}.cls-2{fill:#fff;}.cls-3{opacity:0.56;fill:url(#linear-gradient);}.cls-4{fill:#cbd8e2;}.cls-5{fill:gray;}</style><linearGradient id="New_Gradient_Swatch_15" x1="11.01" y1="65" x2="123.99" y2="65" gradientUnits="userSpaceOnUse"><stop offset="0" stop-color="#4cb0a1"/><stop offset="1" stop-color="#4cb0a1"/></linearGradient><linearGradient id="linear-gradient" x1="60.22" y1="57.78" x2="122.21" y2="117.29" gradientUnits="userSpaceOnUse"><stop offset="0" stop-color="#23233a"/><stop offset="0.05" stop-color="#23233a" stop-opacity="0.88"/><stop offset="0.24" stop-color="#23233a" stop-opacity="0.49"/><stop offset="0.45" stop-color="#23233a" stop-opacity="0.22"/><stop offset="0.68" stop-color="#23233a" stop-opacity="0.05"/><stop offset="1" stop-color="#23233a" stop-opacity="0"/></linearGradient></defs><title>MK_All_logos_11_25_19</title><circle class="cls-1" cx="67.5" cy="65" r="56.49"/><path class="cls-2" d="M67.5,9.79A55.21,55.21,0,1,1,12.29,65,55.21,55.21,0,0,1,67.5,9.79m0-2.56A57.77,57.77,0,1,0,125.27,65,57.84,57.84,0,0,0,67.5,7.23Z"/><path class="cls-3" d="M36.64,83.41l36.52,36.52a55.22,55.22,0,0,0,49.41-51.06L98.45,44.75Z"/><rect class="cls-2" x="34.99" y="43.1" width="65.09" height="41.91" rx="5.57"/><path class="cls-4" d="M94.59,43.1h-27V85h27a5.58,5.58,0,0,0,5.58-5.57V48.68A5.58,5.58,0,0,0,94.59,43.1Z"/><rect class="cls-5" x="41.34" y="54.51" width="11.53" height="7.91" rx="2.64"/><rect class="cls-5" x="42.13" y="70.15" width="8.59" height="4.34" rx="2.17"/><rect class="cls-5" x="56.09" y="70.15" width="8.59" height="4.34" rx="2.17"/><rect class="cls-5" x="70.04" y="70.15" width="8.59" height="4.34" rx="2.17"/><rect class="cls-5" x="83.99" y="70.15" width="8.59" height="4.34" rx="2.17"/></svg>